<svg width="245" height="76" viewBox="0 0 245 76" fill="none" xmlns="http://www.w3.org/2000/svg">
<path d="M54.0845 18L51.3325 9.04H51.2685C51.2792 9.25333 51.2952 9.57333 51.3165 10C51.3378 10.4267 51.3592 10.8853 51.3805 11.376C51.4018 11.856 51.4125 12.2933 51.4125 12.688V18H49.2525V6.576H52.5485L55.2525 15.312H55.3005L58.1645 6.576H61.4605V18H59.2045V12.592C59.2045 12.2293 59.2098 11.8133 59.2205 11.344C59.2418 10.8747 59.2578 10.432 59.2685 10.016C59.2898 9.58933 59.3058 9.26933 59.3165 9.056H59.2525L56.3085 18H54.0845ZM74.7143 12.272C74.7143 13.1573 74.6023 13.9627 74.3783 14.688C74.1649 15.4027 73.8343 16.0213 73.3863 16.544C72.9489 17.0667 72.3836 17.4667 71.6903 17.744C71.0076 18.0213 70.2023 18.16 69.2743 18.16C68.3463 18.16 67.5356 18.0213 66.8423 17.744C66.1596 17.456 65.5943 17.056 65.1463 16.544C64.7089 16.0213 64.3783 15.3973 64.1543 14.672C63.9409 13.9467 63.8343 13.1413 63.8343 12.256C63.8343 11.072 64.0263 10.0427 64.4103 9.168C64.8049 8.29333 65.4023 7.616 66.2023 7.136C67.0129 6.64533 68.0423 6.4 69.2903 6.4C70.5276 6.4 71.5463 6.64533 72.3463 7.136C73.1463 7.616 73.7383 8.29867 74.1223 9.184C74.5169 10.0587 74.7143 11.088 74.7143 12.272ZM66.3783 12.272C66.3783 13.072 66.4796 13.76 66.6823 14.336C66.8849 14.912 67.1996 15.3547 67.6263 15.664C68.0529 15.9733 68.6023 16.128 69.2743 16.128C69.9676 16.128 70.5223 15.9733 70.9383 15.664C71.3649 15.3547 71.6743 14.912 71.8663 14.336C72.0689 13.76 72.1703 13.072 72.1703 12.272C72.1703 11.0667 71.9463 10.1227 71.4983 9.44C71.0503 8.75733 70.3143 8.416 69.2903 8.416C68.6076 8.416 68.0529 8.57067 67.6263 8.88C67.1996 9.18933 66.8849 9.632 66.6823 10.208C66.4796 10.784 66.3783 11.472 66.3783 12.272ZM83.6566 18H77.0806V6.576H83.6566V8.56H79.4966V11.072H83.3686V13.056H79.4966V16H83.6566V18ZM90.6431 18V6.576H99.6831V18H97.2671V8.592H93.0591V18H90.6431ZM112.933 12.272C112.933 13.1573 112.821 13.9627 112.597 14.688C112.384 15.4027 112.053 16.0213 111.605 16.544C111.168 17.0667 110.602 17.4667 109.909 17.744C109.226 18.0213 108.421 18.16 107.493 18.16C106.565 18.16 105.754 18.0213 105.061 17.744C104.378 17.456 103.813 17.056 103.365 16.544C102.928 16.0213 102.597 15.3973 102.373 14.672C102.16 13.9467 102.053 13.1413 102.053 12.256C102.053 11.072 102.245 10.0427 102.629 9.168C103.024 8.29333 103.621 7.616 104.421 7.136C105.232 6.64533 106.261 6.4 107.509 6.4C108.746 6.4 109.765 6.64533 110.565 7.136C111.365 7.616 111.957 8.29867 112.341 9.184C112.736 10.0587 112.933 11.088 112.933 12.272ZM104.597 12.272C104.597 13.072 104.698 13.76 104.901 14.336C105.104 14.912 105.418 15.3547 105.845 15.664C106.272 15.9733 106.821 16.128 107.493 16.128C108.186 16.128 108.741 15.9733 109.157 15.664C109.584 15.3547 109.893 14.912 110.085 14.336C110.288 13.76 110.389 13.072 110.389 12.272C110.389 11.0667 110.165 10.1227 109.717 9.44C109.269 8.75733 108.533 8.416 107.509 8.416C106.826 8.416 106.272 8.57067 105.845 8.88C105.418 9.18933 105.104 9.632 104.901 10.208C104.698 10.784 104.597 11.472 104.597 12.272ZM118.947 6.576C120.419 6.576 121.491 6.896 122.163 7.536C122.846 8.16533 123.187 9.03467 123.187 10.144C123.187 10.6453 123.113 11.1253 122.963 11.584C122.814 12.032 122.563 12.4373 122.211 12.8C121.87 13.152 121.417 13.4293 120.851 13.632C120.286 13.8347 119.587 13.936 118.755 13.936H117.715V18H115.299V6.576H118.947ZM118.819 8.56H117.715V11.952H118.515C118.974 11.952 119.369 11.8933 119.699 11.776C120.03 11.6587 120.286 11.472 120.467 11.216C120.649 10.96 120.739 10.6293 120.739 10.224C120.739 9.65867 120.585 9.24267 120.275 8.976C119.966 8.69867 119.481 8.56 118.819 8.56ZM129.746 18H127.33V8.592H124.226V6.576H132.85V8.592H129.746V18ZM141.14 6.416V7.824C142.388 7.856 143.38 8.07467 144.116 8.48C144.863 8.87467 145.396 9.38667 145.716 10.016C146.047 10.6453 146.212 11.3333 146.212 12.08C146.212 12.56 146.127 13.0507 145.956 13.552C145.796 14.0533 145.519 14.5173 145.124 14.944C144.74 15.36 144.223 15.7013 143.572 15.968C142.921 16.2347 142.111 16.3787 141.14 16.4V18.16H138.964V16.4C137.983 16.3787 137.161 16.2347 136.5 15.968C135.849 15.7013 135.332 15.3547 134.948 14.928C134.564 14.5013 134.292 14.0427 134.132 13.552C133.972 13.0507 133.892 12.56 133.892 12.08C133.892 11.5253 133.983 10.9973 134.164 10.496C134.345 9.99467 134.633 9.54667 135.028 9.152C135.423 8.75733 135.945 8.44267 136.596 8.208C137.247 7.97333 138.036 7.84533 138.964 7.824V6.416H141.14ZM138.964 9.712C138.271 9.744 137.716 9.86667 137.3 10.08C136.895 10.2827 136.601 10.5547 136.42 10.896C136.249 11.2373 136.164 11.6267 136.164 12.064C136.164 12.544 136.26 12.9653 136.452 13.328C136.655 13.68 136.959 13.9627 137.364 14.176C137.78 14.3787 138.313 14.496 138.964 14.528V9.712ZM141.14 14.528C141.791 14.496 142.319 14.3787 142.724 14.176C143.14 13.9627 143.444 13.68 143.636 13.328C143.839 12.9653 143.94 12.544 143.94 12.064C143.94 11.6267 143.849 11.2373 143.668 10.896C143.497 10.5547 143.204 10.2827 142.788 10.08C142.383 9.86667 141.833 9.744 141.14 9.712V14.528ZM158.746 12.272C158.746 13.1573 158.634 13.9627 158.41 14.688C158.196 15.4027 157.866 16.0213 157.418 16.544C156.98 17.0667 156.415 17.4667 155.722 17.744C155.039 18.0213 154.234 18.16 153.306 18.16C152.378 18.16 151.567 18.0213 150.874 17.744C150.191 17.456 149.626 17.056 149.178 16.544C148.74 16.0213 148.41 15.3973 148.186 14.672C147.972 13.9467 147.866 13.1413 147.866 12.256C147.866 11.072 148.058 10.0427 148.442 9.168C148.836 8.29333 149.434 7.616 150.234 7.136C151.044 6.64533 152.074 6.4 153.322 6.4C154.559 6.4 155.578 6.64533 156.378 7.136C157.178 7.616 157.77 8.29867 158.154 9.184C158.548 10.0587 158.746 11.088 158.746 12.272ZM150.41 12.272C150.41 13.072 150.511 13.76 150.714 14.336C150.916 14.912 151.231 15.3547 151.658 15.664C152.084 15.9733 152.634 16.128 153.306 16.128C153.999 16.128 154.554 15.9733 154.97 15.664C155.396 15.3547 155.706 14.912 155.898 14.336C156.1 13.76 156.202 13.072 156.202 12.272C156.202 11.0667 155.978 10.1227 155.53 9.44C155.082 8.75733 154.346 8.416 153.322 8.416C152.639 8.416 152.084 8.57067 151.658 8.88C151.231 9.18933 150.916 9.632 150.714 10.208C150.511 10.784 150.41 11.472 150.41 12.272ZM169.839 18H167.423V8.592H164.623C164.559 9.08267 164.49 9.616 164.415 10.192C164.351 10.768 164.277 11.3547 164.191 11.952C164.117 12.5387 164.037 13.0987 163.951 13.632C163.866 14.1547 163.781 14.6187 163.695 15.024C163.557 15.6853 163.37 16.2507 163.135 16.72C162.911 17.1893 162.597 17.5467 162.191 17.792C161.797 18.0373 161.279 18.16 160.639 18.16C160.426 18.16 160.223 18.144 160.031 18.112C159.839 18.08 159.658 18.0373 159.487 17.984V16C159.626 16.0427 159.759 16.08 159.887 16.112C160.026 16.144 160.175 16.16 160.335 16.16C160.549 16.16 160.725 16.0907 160.863 15.952C161.002 15.8133 161.125 15.5787 161.231 15.248C161.338 14.9067 161.445 14.4373 161.551 13.84C161.605 13.584 161.669 13.2213 161.743 12.752C161.818 12.272 161.903 11.712 161.999 11.072C162.106 10.4213 162.213 9.71733 162.319 8.96C162.426 8.192 162.527 7.39733 162.623 6.576H169.839V18ZM172.721 6.576H174.897V12.096C174.897 12.3627 174.892 12.6613 174.881 12.992C174.871 13.3227 174.86 13.648 174.849 13.968C174.839 14.2773 174.828 14.5493 174.817 14.784C174.807 15.008 174.796 15.1627 174.785 15.248H174.833L180.113 6.576H183.009V18H180.849V12.512C180.849 12.224 180.855 11.9093 180.865 11.568C180.876 11.216 180.887 10.88 180.897 10.56C180.919 10.24 180.935 9.96267 180.945 9.728C180.967 9.48267 180.983 9.32267 180.993 9.248H180.929L175.633 18H172.721V6.576ZM196.261 12.272C196.261 13.1573 196.149 13.9627 195.925 14.688C195.712 15.4027 195.381 16.0213 194.933 16.544C194.496 17.0667 193.93 17.4667 193.237 17.744C192.554 18.0213 191.749 18.16 190.821 18.16C189.893 18.16 189.082 18.0213 188.389 17.744C187.706 17.456 187.141 17.056 186.693 16.544C186.256 16.0213 185.925 15.3973 185.701 14.672C185.488 13.9467 185.381 13.1413 185.381 12.256C185.381 11.072 185.573 10.0427 185.957 9.168C186.352 8.29333 186.949 7.616 187.749 7.136C188.56 6.64533 189.589 6.4 190.837 6.4C192.074 6.4 193.093 6.64533 193.893 7.136C194.693 7.616 195.285 8.29867 195.669 9.184C196.064 10.0587 196.261 11.088 196.261 12.272ZM187.925 12.272C187.925 13.072 188.026 13.76 188.229 14.336C188.432 14.912 188.746 15.3547 189.173 15.664C189.6 15.9733 190.149 16.128 190.821 16.128C191.514 16.128 192.069 15.9733 192.485 15.664C192.912 15.3547 193.221 14.912 193.413 14.336C193.616 13.76 193.717 13.072 193.717 12.272C193.717 11.0667 193.493 10.1227 193.045 9.44C192.597 8.75733 191.861 8.416 190.837 8.416C190.154 8.416 189.6 8.57067 189.173 8.88C188.746 9.18933 188.432 9.632 188.229 10.208C188.026 10.784 187.925 11.472 187.925 12.272Z" fill="black"/>
</svg>
