<svg width="148" height="13" viewBox="0 0 148 13" fill="none" xmlns="http://www.w3.org/2000/svg">
<path d="M5.0845 12L2.3325 3.04H2.2685C2.27917 3.25333 2.29517 3.57333 2.3165 4C2.33783 4.42667 2.35917 4.88533 2.3805 5.376C2.40183 5.856 2.4125 6.29333 2.4125 6.688V12H0.2525V0.575999H3.5485L6.2525 9.312H6.3005L9.1645 0.575999H12.4605V12H10.2045V6.592C10.2045 6.22933 10.2098 5.81333 10.2205 5.344C10.2418 4.87467 10.2578 4.432 10.2685 4.016C10.2898 3.58933 10.3058 3.26933 10.3165 3.056H10.2525L7.3085 12H5.0845ZM25.7143 6.272C25.7143 7.15733 25.6023 7.96267 25.3783 8.688C25.1649 9.40267 24.8343 10.0213 24.3863 10.544C23.9489 11.0667 23.3836 11.4667 22.6903 11.744C22.0076 12.0213 21.2023 12.16 20.2743 12.16C19.3463 12.16 18.5356 12.0213 17.8423 11.744C17.1596 11.456 16.5943 11.056 16.1463 10.544C15.7089 10.0213 15.3783 9.39733 15.1543 8.672C14.9409 7.94667 14.8343 7.14133 14.8343 6.256C14.8343 5.072 15.0263 4.04267 15.4103 3.168C15.8049 2.29333 16.4023 1.616 17.2023 1.136C18.0129 0.645333 19.0423 0.4 20.2903 0.4C21.5276 0.4 22.5463 0.645333 23.3463 1.136C24.1463 1.616 24.7383 2.29867 25.1223 3.184C25.5169 4.05867 25.7143 5.088 25.7143 6.272ZM17.3783 6.272C17.3783 7.072 17.4796 7.76 17.6823 8.336C17.8849 8.912 18.1996 9.35467 18.6263 9.664C19.0529 9.97333 19.6023 10.128 20.2743 10.128C20.9676 10.128 21.5223 9.97333 21.9383 9.664C22.3649 9.35467 22.6743 8.912 22.8663 8.336C23.0689 7.76 23.1703 7.072 23.1703 6.272C23.1703 5.06667 22.9463 4.12267 22.4983 3.44C22.0503 2.75733 21.3143 2.416 20.2903 2.416C19.6076 2.416 19.0529 2.57067 18.6263 2.88C18.1996 3.18933 17.8849 3.632 17.6823 4.208C17.4796 4.784 17.3783 5.472 17.3783 6.272ZM34.6566 12H28.0806V0.575999H34.6566V2.56H30.4966V5.072H34.3686V7.056H30.4966V10H34.6566V12ZM41.6431 12V0.575999H50.6831V12H48.2671V2.592H44.0591V12H41.6431ZM63.933 6.272C63.933 7.15733 63.821 7.96267 63.597 8.688C63.3837 9.40267 63.053 10.0213 62.605 10.544C62.1677 11.0667 61.6023 11.4667 60.909 11.744C60.2263 12.0213 59.421 12.16 58.493 12.16C57.565 12.16 56.7543 12.0213 56.061 11.744C55.3783 11.456 54.813 11.056 54.365 10.544C53.9277 10.0213 53.597 9.39733 53.373 8.672C53.1597 7.94667 53.053 7.14133 53.053 6.256C53.053 5.072 53.245 4.04267 53.629 3.168C54.0237 2.29333 54.621 1.616 55.421 1.136C56.2317 0.645333 57.261 0.4 58.509 0.4C59.7463 0.4 60.765 0.645333 61.565 1.136C62.365 1.616 62.957 2.29867 63.341 3.184C63.7357 4.05867 63.933 5.088 63.933 6.272ZM55.597 6.272C55.597 7.072 55.6983 7.76 55.901 8.336C56.1037 8.912 56.4183 9.35467 56.845 9.664C57.2717 9.97333 57.821 10.128 58.493 10.128C59.1863 10.128 59.741 9.97333 60.157 9.664C60.5837 9.35467 60.893 8.912 61.085 8.336C61.2877 7.76 61.389 7.072 61.389 6.272C61.389 5.06667 61.165 4.12267 60.717 3.44C60.269 2.75733 59.533 2.416 58.509 2.416C57.8263 2.416 57.2717 2.57067 56.845 2.88C56.4183 3.18933 56.1037 3.632 55.901 4.208C55.6983 4.784 55.597 5.472 55.597 6.272ZM69.9474 0.575999C71.4194 0.575999 72.4914 0.895999 73.1634 1.536C73.846 2.16533 74.1874 3.03467 74.1874 4.144C74.1874 4.64533 74.1127 5.12533 73.9634 5.584C73.814 6.032 73.5634 6.43733 73.2114 6.8C72.87 7.152 72.4167 7.42933 71.8514 7.632C71.286 7.83467 70.5874 7.936 69.7554 7.936H68.7154V12H66.2994V0.575999H69.9474ZM69.8194 2.56H68.7154V5.952H69.5154C69.974 5.952 70.3687 5.89333 70.6994 5.776C71.03 5.65867 71.286 5.472 71.4674 5.216C71.6487 4.96 71.7394 4.62933 71.7394 4.224C71.7394 3.65867 71.5847 3.24267 71.2754 2.976C70.966 2.69867 70.4807 2.56 69.8194 2.56ZM80.7463 12H78.3303V2.592H75.2263V0.575999H83.8503V2.592H80.7463V12ZM92.1399 0.415999V1.824C93.3879 1.856 94.3799 2.07467 95.1159 2.48C95.8625 2.87467 96.3959 3.38667 96.7159 4.016C97.0465 4.64533 97.2119 5.33333 97.2119 6.08C97.2119 6.56 97.1265 7.05067 96.9559 7.552C96.7959 8.05333 96.5185 8.51733 96.1239 8.944C95.7399 9.36 95.2225 9.70133 94.5719 9.968C93.9212 10.2347 93.1105 10.3787 92.1399 10.4V12.16H89.9639V10.4C88.9825 10.3787 88.1612 10.2347 87.4999 9.968C86.8492 9.70133 86.3319 9.35467 85.9479 8.928C85.5639 8.50133 85.2919 8.04267 85.1319 7.552C84.9719 7.05067 84.8919 6.56 84.8919 6.08C84.8919 5.52533 84.9825 4.99733 85.1639 4.496C85.3452 3.99467 85.6332 3.54667 86.0279 3.152C86.4225 2.75733 86.9452 2.44267 87.5959 2.208C88.2465 1.97333 89.0359 1.84533 89.9639 1.824V0.415999H92.1399ZM89.9639 3.712C89.2705 3.744 88.7159 3.86667 88.2999 4.08C87.8945 4.28267 87.6012 4.55467 87.4199 4.896C87.2492 5.23733 87.1639 5.62667 87.1639 6.064C87.1639 6.544 87.2599 6.96533 87.4519 7.328C87.6545 7.68 87.9585 7.96267 88.3639 8.176C88.7799 8.37867 89.3132 8.496 89.9639 8.528V3.712ZM92.1399 8.528C92.7905 8.496 93.3185 8.37867 93.7239 8.176C94.1399 7.96267 94.4439 7.68 94.6359 7.328C94.8385 6.96533 94.9399 6.544 94.9399 6.064C94.9399 5.62667 94.8492 5.23733 94.6679 4.896C94.4972 4.55467 94.2039 4.28267 93.7879 4.08C93.3825 3.86667 92.8332 3.744 92.1399 3.712V8.528ZM109.746 6.272C109.746 7.15733 109.634 7.96267 109.41 8.688C109.196 9.40267 108.866 10.0213 108.418 10.544C107.98 11.0667 107.415 11.4667 106.722 11.744C106.039 12.0213 105.234 12.16 104.306 12.16C103.378 12.16 102.567 12.0213 101.874 11.744C101.191 11.456 100.626 11.056 100.178 10.544C99.7402 10.0213 99.4095 9.39733 99.1855 8.672C98.9722 7.94667 98.8655 7.14133 98.8655 6.256C98.8655 5.072 99.0575 4.04267 99.4415 3.168C99.8362 2.29333 100.434 1.616 101.234 1.136C102.044 0.645333 103.074 0.4 104.322 0.4C105.559 0.4 106.578 0.645333 107.378 1.136C108.178 1.616 108.77 2.29867 109.154 3.184C109.548 4.05867 109.746 5.088 109.746 6.272ZM101.41 6.272C101.41 7.072 101.511 7.76 101.714 8.336C101.916 8.912 102.231 9.35467 102.658 9.664C103.084 9.97333 103.634 10.128 104.306 10.128C104.999 10.128 105.554 9.97333 105.97 9.664C106.396 9.35467 106.706 8.912 106.898 8.336C107.1 7.76 107.202 7.072 107.202 6.272C107.202 5.06667 106.978 4.12267 106.53 3.44C106.082 2.75733 105.346 2.416 104.322 2.416C103.639 2.416 103.084 2.57067 102.658 2.88C102.231 3.18933 101.916 3.632 101.714 4.208C101.511 4.784 101.41 5.472 101.41 6.272ZM120.839 12H118.423V2.592H115.623C115.559 3.08267 115.49 3.616 115.415 4.192C115.351 4.768 115.277 5.35467 115.191 5.952C115.117 6.53867 115.037 7.09867 114.951 7.632C114.866 8.15467 114.781 8.61867 114.695 9.024C114.557 9.68533 114.37 10.2507 114.135 10.72C113.911 11.1893 113.597 11.5467 113.191 11.792C112.797 12.0373 112.279 12.16 111.639 12.16C111.426 12.16 111.223 12.144 111.031 12.112C110.839 12.08 110.658 12.0373 110.487 11.984V10C110.626 10.0427 110.759 10.08 110.887 10.112C111.026 10.144 111.175 10.16 111.335 10.16C111.549 10.16 111.725 10.0907 111.863 9.952C112.002 9.81333 112.125 9.57867 112.231 9.248C112.338 8.90667 112.445 8.43733 112.551 7.84C112.605 7.584 112.669 7.22133 112.743 6.752C112.818 6.272 112.903 5.712 112.999 5.072C113.106 4.42133 113.213 3.71733 113.319 2.96C113.426 2.192 113.527 1.39733 113.623 0.575999H120.839V12ZM123.721 0.575999H125.897V6.096C125.897 6.36267 125.892 6.66133 125.881 6.992C125.871 7.32267 125.86 7.648 125.849 7.968C125.839 8.27733 125.828 8.54933 125.817 8.784C125.807 9.008 125.796 9.16267 125.785 9.248H125.833L131.113 0.575999H134.009V12H131.849V6.512C131.849 6.224 131.855 5.90933 131.865 5.568C131.876 5.216 131.887 4.88 131.897 4.56C131.919 4.24 131.935 3.96267 131.945 3.728C131.967 3.48267 131.983 3.32267 131.993 3.248H131.929L126.633 12H123.721V0.575999ZM147.261 6.272C147.261 7.15733 147.149 7.96267 146.925 8.688C146.712 9.40267 146.381 10.0213 145.933 10.544C145.496 11.0667 144.93 11.4667 144.237 11.744C143.554 12.0213 142.749 12.16 141.821 12.16C140.893 12.16 140.082 12.0213 139.389 11.744C138.706 11.456 138.141 11.056 137.693 10.544C137.256 10.0213 136.925 9.39733 136.701 8.672C136.488 7.94667 136.381 7.14133 136.381 6.256C136.381 5.072 136.573 4.04267 136.957 3.168C137.352 2.29333 137.949 1.616 138.749 1.136C139.56 0.645333 140.589 0.4 141.837 0.4C143.074 0.4 144.093 0.645333 144.893 1.136C145.693 1.616 146.285 2.29867 146.669 3.184C147.064 4.05867 147.261 5.088 147.261 6.272ZM138.925 6.272C138.925 7.072 139.026 7.76 139.229 8.336C139.432 8.912 139.746 9.35467 140.173 9.664C140.6 9.97333 141.149 10.128 141.821 10.128C142.514 10.128 143.069 9.97333 143.485 9.664C143.912 9.35467 144.221 8.912 144.413 8.336C144.616 7.76 144.717 7.072 144.717 6.272C144.717 5.06667 144.493 4.12267 144.045 3.44C143.597 2.75733 142.861 2.416 141.837 2.416C141.154 2.416 140.6 2.57067 140.173 2.88C139.746 3.18933 139.432 3.632 139.229 4.208C139.026 4.784 138.925 5.472 138.925 6.272Z" fill="black"/>
</svg>
